<svg xmlns="http://www.w3.org/2000/svg" xmlns:xlink="http://www.w3.org/1999/xlink" width="500" zoomAndPan="magnify" viewBox="0 0 375 374.999991" height="500" preserveAspectRatio="xMidYMid meet" version="1.0"><defs><g/><clipPath id="2bbf4e42c2"><path d="M 164.265625 87.605469 L 214.515625 87.605469 L 214.515625 143 L 164.265625 143 Z M 164.265625 87.605469 " clip-rule="nonzero"/></clipPath></defs><rect x="-37.5" width="450" fill="#ffffff" y="-37.499999" height="449.999989" fill-opacity="1"/><rect x="-37.5" width="450" fill="#ffffff" y="-37.499999" height="449.999989" fill-opacity="1"/><g fill="#042f69" fill-opacity="1"><g transform="translate(182.762862, 216.645844)"><g><path d="M 130.390625 0 L 103.21875 0 L 103.21875 -41.3125 L 78.921875 0 L 58.65625 0 L 34.40625 -41.3125 L 34.40625 0 L 7.21875 0 L 7.21875 -64.796875 L 39.5 -64.796875 L 68.8125 -18.515625 L 98.0625 -64.796875 L 130.390625 -64.796875 Z M 130.390625 0 "/></g></g></g><g fill="#042f69" fill-opacity="1"><g transform="translate(61.431615, 216.645844)"><g><path d="M 130.390625 0 L 103.21875 0 L 103.21875 -41.3125 L 78.921875 0 L 58.65625 0 L 34.40625 -41.3125 L 34.40625 0 L 7.21875 0 L 7.21875 -64.796875 L 39.5 -64.796875 L 68.8125 -18.515625 L 98.0625 -64.796875 L 130.390625 -64.796875 Z M 130.390625 0 "/></g></g></g><path stroke-linecap="butt" transform="matrix(0.75, 0, 0, 0.75, 68.358002, 217.123697)" fill="none" stroke-linejoin="miter" d="M 0.00183012 2.001738 L 326.340393 2.001738 " stroke="#042f69" stroke-width="4" stroke-opacity="1" stroke-miterlimit="4"/><g clip-path="url(#2bbf4e42c2)"><path fill="#042f69" d="M 210.523438 114.289062 L 206.667969 110.433594 L 206.667969 135.191406 L 202.8125 135.191406 L 202.8125 106.578125 L 198.957031 102.722656 L 198.957031 139.046875 L 214.375 139.046875 L 214.375 142.902344 L 195.101562 142.902344 L 195.101562 93.417969 C 201.527344 99.839844 207.953125 106.265625 214.375 112.691406 L 214.375 135.191406 L 210.519531 135.191406 L 210.519531 114.289062 Z M 183.539062 139.046875 L 183.539062 93.417969 L 164.265625 112.691406 L 164.265625 142.902344 L 168.121094 142.902344 L 168.121094 114.289062 L 171.972656 110.433594 L 171.972656 142.902344 L 175.828125 142.902344 L 175.828125 106.578125 L 179.683594 102.722656 L 179.683594 142.902344 L 191.25 142.902344 L 191.25 89.5625 L 189.320312 87.636719 L 187.394531 89.5625 L 187.394531 139.046875 Z M 183.539062 139.046875 " fill-opacity="1" fill-rule="nonzero"/></g><path stroke-linecap="butt" transform="matrix(0.75, -0.000000000000000093, 0.000000000000000093, 0.75, 68.358002, 147.270473)" fill="none" stroke-linejoin="miter" d="M 0.00183012 1.998745 L 326.340393 1.998745 " stroke="#042f69" stroke-width="4" stroke-opacity="1" stroke-miterlimit="4"/><g fill="#042f69" fill-opacity="1"><g transform="translate(70.327457, 242.071074)"><g><path d="M 30.0625 0 L 22.453125 0 L 20.765625 -2.9375 L 9.484375 -2.9375 L 7.796875 0 L 0.1875 0 L 11.640625 -17.890625 L 18.609375 -17.890625 Z M 18.234375 -7.359375 L 15.125 -12.78125 L 12.015625 -7.359375 Z M 18.234375 -7.359375 "/></g></g></g><g fill="#042f69" fill-opacity="1"><g transform="translate(98.831703, 242.071074)"><g><path d="M 11.828125 0.390625 C 9.410156 0.390625 7.457031 0.128906 5.96875 -0.390625 C 4.488281 -0.910156 3.363281 -1.625 2.59375 -2.53125 C 1.820312 -3.445312 1.300781 -4.5 1.03125 -5.6875 L 9 -5.6875 C 9.59375 -4.84375 10.535156 -4.421875 11.828125 -4.421875 C 13.117188 -4.421875 14.054688 -4.84375 14.640625 -5.6875 C 14.691406 -5.769531 14.71875 -5.84375 14.71875 -5.90625 C 14.71875 -6.132812 14.421875 -6.304688 13.828125 -6.421875 C 13.234375 -6.535156 12.347656 -6.617188 11.171875 -6.671875 C 9.679688 -6.734375 8.113281 -6.890625 6.46875 -7.140625 C 2.820312 -7.710938 1 -9.179688 1 -11.546875 C 1 -11.742188 1.007812 -11.957031 1.03125 -12.1875 C 1.300781 -13.375 1.820312 -14.421875 2.59375 -15.328125 C 3.363281 -16.242188 4.488281 -16.960938 5.96875 -17.484375 C 7.457031 -18.003906 9.410156 -18.265625 11.828125 -18.265625 C 14.242188 -18.265625 16.191406 -18.003906 17.671875 -17.484375 C 19.148438 -16.960938 20.273438 -16.242188 21.046875 -15.328125 C 21.828125 -14.421875 22.347656 -13.375 22.609375 -12.1875 L 14.640625 -12.1875 C 14.054688 -13.03125 13.117188 -13.453125 11.828125 -13.453125 C 10.535156 -13.453125 9.59375 -13.03125 9 -12.1875 C 8.957031 -12.125 8.9375 -12.0625 8.9375 -12 C 8.9375 -11.800781 9.222656 -11.648438 9.796875 -11.546875 C 10.367188 -11.453125 11.207031 -11.375 12.3125 -11.3125 C 13.425781 -11.25 14.609375 -11.140625 15.859375 -10.984375 C 17.117188 -10.835938 18.296875 -10.578125 19.390625 -10.203125 C 20.484375 -9.835938 21.335938 -9.289062 21.953125 -8.5625 C 22.429688 -8.007812 22.671875 -7.304688 22.671875 -6.453125 C 22.671875 -6.210938 22.648438 -5.957031 22.609375 -5.6875 C 22.347656 -4.5 21.828125 -3.445312 21.046875 -2.53125 C 20.273438 -1.625 19.148438 -0.910156 17.671875 -0.390625 C 16.191406 0.128906 14.242188 0.390625 11.828125 0.390625 Z M 11.828125 0.390625 "/></g></g></g><g fill="#042f69" fill-opacity="1"><g transform="translate(122.508348, 242.071074)"><g><path d="M 11.828125 0.390625 C 9.410156 0.390625 7.457031 0.128906 5.96875 -0.390625 C 4.488281 -0.910156 3.363281 -1.625 2.59375 -2.53125 C 1.820312 -3.445312 1.300781 -4.5 1.03125 -5.6875 L 9 -5.6875 C 9.59375 -4.84375 10.535156 -4.421875 11.828125 -4.421875 C 13.117188 -4.421875 14.054688 -4.84375 14.640625 -5.6875 C 14.691406 -5.769531 14.71875 -5.84375 14.71875 -5.90625 C 14.71875 -6.132812 14.421875 -6.304688 13.828125 -6.421875 C 13.234375 -6.535156 12.347656 -6.617188 11.171875 -6.671875 C 9.679688 -6.734375 8.113281 -6.890625 6.46875 -7.140625 C 2.820312 -7.710938 1 -9.179688 1 -11.546875 C 1 -11.742188 1.007812 -11.957031 1.03125 -12.1875 C 1.300781 -13.375 1.820312 -14.421875 2.59375 -15.328125 C 3.363281 -16.242188 4.488281 -16.960938 5.96875 -17.484375 C 7.457031 -18.003906 9.410156 -18.265625 11.828125 -18.265625 C 14.242188 -18.265625 16.191406 -18.003906 17.671875 -17.484375 C 19.148438 -16.960938 20.273438 -16.242188 21.046875 -15.328125 C 21.828125 -14.421875 22.347656 -13.375 22.609375 -12.1875 L 14.640625 -12.1875 C 14.054688 -13.03125 13.117188 -13.453125 11.828125 -13.453125 C 10.535156 -13.453125 9.59375 -13.03125 9 -12.1875 C 8.957031 -12.125 8.9375 -12.0625 8.9375 -12 C 8.9375 -11.800781 9.222656 -11.648438 9.796875 -11.546875 C 10.367188 -11.453125 11.207031 -11.375 12.3125 -11.3125 C 13.425781 -11.25 14.609375 -11.140625 15.859375 -10.984375 C 17.117188 -10.835938 18.296875 -10.578125 19.390625 -10.203125 C 20.484375 -9.835938 21.335938 -9.289062 21.953125 -8.5625 C 22.429688 -8.007812 22.671875 -7.304688 22.671875 -6.453125 C 22.671875 -6.210938 22.648438 -5.957031 22.609375 -5.6875 C 22.347656 -4.5 21.828125 -3.445312 21.046875 -2.53125 C 20.273438 -1.625 19.148438 -0.910156 17.671875 -0.390625 C 16.191406 0.128906 14.242188 0.390625 11.828125 0.390625 Z M 11.828125 0.390625 "/></g></g></g><g fill="#042f69" fill-opacity="1"><g transform="translate(146.184994, 242.071074)"><g><path d="M 13.53125 0.390625 C 9.101562 0.390625 5.847656 -0.519531 3.765625 -2.34375 C 1.921875 -3.957031 1 -6.15625 1 -8.9375 C 1 -11.71875 1.921875 -13.914062 3.765625 -15.53125 C 5.847656 -17.351562 9.101562 -18.265625 13.53125 -18.265625 C 17.957031 -18.265625 21.210938 -17.351562 23.296875 -15.53125 C 25.148438 -13.914062 26.078125 -11.71875 26.078125 -8.9375 C 26.078125 -6.15625 25.148438 -3.957031 23.296875 -2.34375 C 21.210938 -0.519531 17.957031 0.390625 13.53125 0.390625 Z M 13.53125 -4.421875 C 15.34375 -4.421875 16.675781 -4.9375 17.53125 -5.96875 C 18.207031 -6.8125 18.546875 -7.800781 18.546875 -8.9375 C 18.546875 -10.082031 18.207031 -11.070312 17.53125 -11.90625 C 16.675781 -12.945312 15.34375 -13.46875 13.53125 -13.46875 C 11.71875 -13.46875 10.382812 -12.945312 9.53125 -11.90625 C 8.84375 -11.070312 8.5 -10.082031 8.5 -8.9375 C 8.5 -7.800781 8.84375 -6.8125 9.53125 -5.96875 C 10.382812 -4.9375 11.71875 -4.421875 13.53125 -4.421875 Z M 13.53125 -4.421875 "/></g></g></g><g fill="#042f69" fill-opacity="1"><g transform="translate(173.25471, 242.071074)"><g><path d="M 13.53125 0.390625 C 9.101562 0.390625 5.847656 -0.519531 3.765625 -2.34375 C 1.921875 -3.945312 1 -6.144531 1 -8.9375 C 1 -11.71875 1.921875 -13.914062 3.765625 -15.53125 C 5.847656 -17.34375 9.101562 -18.25 13.53125 -18.25 C 16.125 -18.25 18.269531 -17.953125 19.96875 -17.359375 C 21.664062 -16.765625 22.984375 -15.953125 23.921875 -14.921875 C 24.859375 -13.890625 25.484375 -12.707031 25.796875 -11.375 L 17.90625 -11.375 C 17.113281 -12.757812 15.65625 -13.453125 13.53125 -13.453125 C 11.71875 -13.453125 10.382812 -12.929688 9.53125 -11.890625 C 8.84375 -11.054688 8.5 -10.070312 8.5 -8.9375 C 8.5 -7.789062 8.84375 -6.800781 9.53125 -5.96875 C 10.382812 -4.925781 11.71875 -4.40625 13.53125 -4.40625 C 15.65625 -4.40625 17.113281 -5.101562 17.90625 -6.5 L 25.796875 -6.5 C 25.484375 -5.15625 24.859375 -3.96875 23.921875 -2.9375 C 22.984375 -1.90625 21.664062 -1.09375 19.96875 -0.5 C 18.269531 0.09375 16.125 0.390625 13.53125 0.390625 Z M 13.53125 0.390625 "/></g></g></g><g fill="#042f69" fill-opacity="1"><g transform="translate(200.049993, 242.071074)"><g><path d="M 9.5 0 L 2 0 L 2 -17.90625 L 9.5 -17.90625 Z M 9.5 0 "/></g></g></g><g fill="#042f69" fill-opacity="1"><g transform="translate(211.551504, 242.071074)"><g><path d="M 30.0625 0 L 22.453125 0 L 20.765625 -2.9375 L 9.484375 -2.9375 L 7.796875 0 L 0.1875 0 L 11.640625 -17.890625 L 18.609375 -17.890625 Z M 18.234375 -7.359375 L 15.125 -12.78125 L 12.015625 -7.359375 Z M 18.234375 -7.359375 "/></g></g></g><g fill="#042f69" fill-opacity="1"><g transform="translate(238.059779, 242.071074)"><g><path d="M 15.265625 0 L 7.765625 0 L 7.765625 -13.46875 L 0.75 -13.46875 L 0.75 -17.90625 L 22.28125 -17.90625 L 22.28125 -13.46875 L 15.265625 -13.46875 Z M 15.265625 0 "/></g></g></g><g fill="#042f69" fill-opacity="1"><g transform="translate(261.087749, 242.071074)"><g><path d="M 23.546875 0 L 2 0 L 2 -17.90625 L 22.5625 -17.90625 L 22.5625 -13.46875 L 9.5 -13.46875 L 9.5 -10.671875 L 20.546875 -10.671875 L 20.546875 -7.21875 L 9.5 -7.21875 L 9.5 -4.421875 L 23.546875 -4.421875 Z M 23.546875 0 "/></g></g></g><g fill="#042f69" fill-opacity="1"><g transform="translate(285.637611, 242.071074)"><g><path d="M 11.828125 0.390625 C 9.410156 0.390625 7.457031 0.128906 5.96875 -0.390625 C 4.488281 -0.910156 3.363281 -1.625 2.59375 -2.53125 C 1.820312 -3.445312 1.300781 -4.5 1.03125 -5.6875 L 9 -5.6875 C 9.59375 -4.84375 10.535156 -4.421875 11.828125 -4.421875 C 13.117188 -4.421875 14.054688 -4.84375 14.640625 -5.6875 C 14.691406 -5.769531 14.71875 -5.84375 14.71875 -5.90625 C 14.71875 -6.132812 14.421875 -6.304688 13.828125 -6.421875 C 13.234375 -6.535156 12.347656 -6.617188 11.171875 -6.671875 C 9.679688 -6.734375 8.113281 -6.890625 6.46875 -7.140625 C 2.820312 -7.710938 1 -9.179688 1 -11.546875 C 1 -11.742188 1.007812 -11.957031 1.03125 -12.1875 C 1.300781 -13.375 1.820312 -14.421875 2.59375 -15.328125 C 3.363281 -16.242188 4.488281 -16.960938 5.96875 -17.484375 C 7.457031 -18.003906 9.410156 -18.265625 11.828125 -18.265625 C 14.242188 -18.265625 16.191406 -18.003906 17.671875 -17.484375 C 19.148438 -16.960938 20.273438 -16.242188 21.046875 -15.328125 C 21.828125 -14.421875 22.347656 -13.375 22.609375 -12.1875 L 14.640625 -12.1875 C 14.054688 -13.03125 13.117188 -13.453125 11.828125 -13.453125 C 10.535156 -13.453125 9.59375 -13.03125 9 -12.1875 C 8.957031 -12.125 8.9375 -12.0625 8.9375 -12 C 8.9375 -11.800781 9.222656 -11.648438 9.796875 -11.546875 C 10.367188 -11.453125 11.207031 -11.375 12.3125 -11.3125 C 13.425781 -11.25 14.609375 -11.140625 15.859375 -10.984375 C 17.117188 -10.835938 18.296875 -10.578125 19.390625 -10.203125 C 20.484375 -9.835938 21.335938 -9.289062 21.953125 -8.5625 C 22.429688 -8.007812 22.671875 -7.304688 22.671875 -6.453125 C 22.671875 -6.210938 22.648438 -5.957031 22.609375 -5.6875 C 22.347656 -4.5 21.828125 -3.445312 21.046875 -2.53125 C 20.273438 -1.625 19.148438 -0.910156 17.671875 -0.390625 C 16.191406 0.128906 14.242188 0.390625 11.828125 0.390625 Z M 11.828125 0.390625 "/></g></g></g><g fill="#b6a27b" fill-opacity="1"><g transform="translate(162.67971, 209.727423)"><g><path d="M 21.15625 0.796875 C 17.4375 0.796875 14.195312 0.15625 11.4375 -1.125 C 8.6875 -2.40625 6.550781 -4.203125 5.03125 -6.515625 C 3.507812 -8.835938 2.75 -11.539062 2.75 -14.625 C 2.75 -17.914062 3.664062 -20.890625 5.5 -23.546875 C 7.34375 -26.203125 10.070312 -28.328125 13.6875 -29.921875 C 12.238281 -31.609375 11.203125 -33.195312 10.578125 -34.6875 C 9.953125 -36.1875 9.640625 -37.785156 9.640625 -39.484375 C 9.640625 -41.796875 10.21875 -43.859375 11.375 -45.671875 C 12.53125 -47.484375 14.179688 -48.921875 16.328125 -49.984375 C 18.484375 -51.046875 21.054688 -51.578125 24.046875 -51.578125 C 27.085938 -51.578125 29.671875 -51.019531 31.796875 -49.90625 C 33.921875 -48.800781 35.523438 -47.304688 36.609375 -45.421875 C 37.703125 -43.535156 38.203125 -41.429688 38.109375 -39.109375 L 29.265625 -39.109375 C 29.265625 -40.898438 28.742188 -42.242188 27.703125 -43.140625 C 26.671875 -44.035156 25.429688 -44.484375 23.984375 -44.484375 C 22.335938 -44.484375 21.019531 -44.019531 20.03125 -43.09375 C 19.039062 -42.175781 18.546875 -40.992188 18.546875 -39.546875 C 18.546875 -38.335938 18.929688 -37.101562 19.703125 -35.84375 C 20.472656 -34.59375 21.609375 -33.148438 23.109375 -31.515625 L 37.3125 -17.453125 C 38.320312 -19.097656 39.382812 -21.007812 40.5 -23.1875 L 42.09375 -26.375 L 51.578125 -26.375 L 49.046875 -21.4375 C 47.109375 -17.53125 45.175781 -14.222656 43.25 -11.515625 L 54.90625 0 L 43.828125 0 L 38.171875 -5.65625 C 35.710938 -3.382812 33.09375 -1.738281 30.3125 -0.71875 C 27.539062 0.289062 24.488281 0.796875 21.15625 0.796875 Z M 11.734375 -15.21875 C 11.734375 -12.84375 12.613281 -10.847656 14.375 -9.234375 C 16.132812 -7.617188 18.488281 -6.8125 21.4375 -6.8125 C 25.644531 -6.8125 29.289062 -8.304688 32.375 -11.296875 L 18.984375 -24.5625 C 16.515625 -23.5 14.6875 -22.171875 13.5 -20.578125 C 12.320312 -18.984375 11.734375 -17.195312 11.734375 -15.21875 Z M 11.734375 -15.21875 "/></g></g></g></svg>